<mxfile host="app.diagrams.net" modified="2023-05-10T12:00:00.000Z" agent="5.0 (Windows NT 10.0; Win64; x64) AppleWebKit/537.36 (KHTML, like Gecko) Chrome/91.0.4472.124 Safari/537.36" etag="banking-experience-api" version="15.8.3" type="device">
  <diagram id="banking-experience-api-architecture" name="Banking Experience API Architecture">
    <mxGraphModel dx="1422" dy="762" grid="1" gridSize="10" guides="1" tooltips="1" connect="1" arrows="1" fold="1" page="1" pageScale="1" pageWidth="1100" pageHeight="1700" math="0" shadow="0">
      <root>
        <mxCell id="0" />
        <mxCell id="1" parent="0" />
        
        <!-- Title -->
        <mxCell id="title" value="Banking Experience API Architecture - Request/Response Flow" style="text;html=1;strokeColor=none;fillColor=none;align=center;verticalAlign=middle;whiteSpace=wrap;rounded=0;fontSize=16;fontStyle=1" vertex="1" parent="1">
          <mxGeometry x="300" y="20" width="500" height="30" as="geometry" />
        </mxCell>

        <!-- Client Devices -->
        <mxCell id="client_group" value="Client Devices" style="swimlane;fontStyle=0;childLayout=stackLayout;horizontal=1;startSize=30;horizontalStack=0;resizeParent=1;resizeParentMax=0;resizeLast=0;collapsible=1;marginBottom=0;fillColor=#dae8fc;strokeColor=#6c8ebf;" vertex="1" parent="1">
          <mxGeometry x="50" y="100" width="140" height="120" as="geometry" />
        </mxCell>
        <mxCell id="mobile_app" value="Mobile Apps" style="text;strokeColor=none;fillColor=none;align=left;verticalAlign=middle;spacingLeft=4;spacingRight=4;overflow=hidden;points=[[0,0.5],[1,0.5]];portConstraint=eastwest;rotatable=0;" vertex="1" parent="client_group">
          <mxGeometry y="30" width="140" height="30" as="geometry" />
        </mxCell>
        <mxCell id="web_app" value="Web Applications" style="text;strokeColor=none;fillColor=none;align=left;verticalAlign=middle;spacingLeft=4;spacingRight=4;overflow=hidden;points=[[0,0.5],[1,0.5]];portConstraint=eastwest;rotatable=0;" vertex="1" parent="client_group">
          <mxGeometry y="60" width="140" height="30" as="geometry" />
        </mxCell>
        <mxCell id="third_party" value="3rd Party Systems" style="text;strokeColor=none;fillColor=none;align=left;verticalAlign=middle;spacingLeft=4;spacingRight=4;overflow=hidden;points=[[0,0.5],[1,0.5]];portConstraint=eastwest;rotatable=0;" vertex="1" parent="client_group">
          <mxGeometry y="90" width="140" height="30" as="geometry" />
        </mxCell>

        <!-- CDN -->
        <mxCell id="cdn" value="Content Delivery Network (CDN)" style="rounded=1;whiteSpace=wrap;html=1;fillColor=#f5f5f5;strokeColor=#666666;fontColor=#333333;" vertex="1" parent="1">
          <mxGeometry x="250" y="130" width="160" height="60" as="geometry" />
        </mxCell>
        
        <!-- CDN Cache Box -->
        <mxCell id="cdn_cache_box" value="CDN Caching Layer" style="swimlane;fontStyle=0;childLayout=stackLayout;horizontal=1;startSize=26;fillColor=#f5f5f5;horizontalStack=0;resizeParent=1;resizeParentMax=0;resizeLast=0;collapsible=1;marginBottom=0;strokeColor=#666666;fontColor=#333333;" vertex="1" parent="1">
          <mxGeometry x="250" y="210" width="160" height="78" as="geometry" />
        </mxCell>
        <mxCell id="static_content" value="Static Content" style="text;strokeColor=none;fillColor=none;align=left;verticalAlign=top;spacingLeft=4;spacingRight=4;overflow=hidden;rotatable=0;points=[[0,0.5],[1,0.5]];portConstraint=eastwest;" vertex="1" parent="cdn_cache_box">
          <mxGeometry y="26" width="160" height="26" as="geometry" />
        </mxCell>
        <mxCell id="api_responses" value="Cacheable API Responses" style="text;strokeColor=none;fillColor=none;align=left;verticalAlign=top;spacingLeft=4;spacingRight=4;overflow=hidden;rotatable=0;points=[[0,0.5],[1,0.5]];portConstraint=eastwest;" vertex="1" parent="cdn_cache_box">
          <mxGeometry y="52" width="160" height="26" as="geometry" />
        </mxCell>

        <!-- DMZ 1 -->
        <mxCell id="dmz1_label" value="DMZ 1" style="text;html=1;strokeColor=none;fillColor=none;align=center;verticalAlign=middle;whiteSpace=wrap;rounded=0;fontStyle=1" vertex="1" parent="1">
          <mxGeometry x="515" y="100" width="60" height="30" as="geometry" />
        </mxCell>
        <mxCell id="dmz1" value="" style="rounded=0;whiteSpace=wrap;html=1;fillColor=#fff2cc;strokeColor=#d6b656;dashed=1;dashPattern=1 1;" vertex="1" parent="1">
          <mxGeometry x="450" y="130" width="190" height="160" as="geometry" />
        </mxCell>
        
        <!-- Reverse Proxy -->
        <mxCell id="reverse_proxy" value="Reverse Proxy" style="rounded=1;whiteSpace=wrap;html=1;fillColor=#fff2cc;strokeColor=#d6b656;" vertex="1" parent="1">
          <mxGeometry x="480" y="150" width="130" height="60" as="geometry" />
        </mxCell>
        
        <!-- Web Application Firewall -->
        <mxCell id="waf" value="Web Application Firewall" style="rounded=1;whiteSpace=wrap;html=1;fillColor=#fff2cc;strokeColor=#d6b656;" vertex="1" parent="1">
          <mxGeometry x="480" y="220" width="130" height="60" as="geometry" />
        </mxCell>

        <!-- DMZ 2 -->
        <mxCell id="dmz2_label" value="DMZ 2" style="text;html=1;strokeColor=none;fillColor=none;align=center;verticalAlign=middle;whiteSpace=wrap;rounded=0;fontStyle=1" vertex="1" parent="1">
          <mxGeometry x="515" y="300" width="60" height="30" as="geometry" />
        </mxCell>
        <mxCell id="dmz2" value="" style="rounded=0;whiteSpace=wrap;html=1;fillColor=#d5e8d4;strokeColor=#82b366;dashed=1;dashPattern=1 1;" vertex="1" parent="1">
          <mxGeometry x="450" y="330" width="190" height="290" as="geometry" />
        </mxCell>
        
        <!-- API Gateway -->
        <mxCell id="api_gateway" value="API Gateway" style="swimlane;fontStyle=0;childLayout=stackLayout;horizontal=1;startSize=26;fillColor=#d5e8d4;horizontalStack=0;resizeParent=1;resizeParentMax=0;resizeLast=0;collapsible=1;marginBottom=0;strokeColor=#82b366;" vertex="1" parent="1">
          <mxGeometry x="465" y="350" width="160" height="130" as="geometry" />
        </mxCell>
        <mxCell id="gateway_auth" value="Authentication" style="text;strokeColor=none;fillColor=none;align=left;verticalAlign=top;spacingLeft=4;spacingRight=4;overflow=hidden;rotatable=0;points=[[0,0.5],[1,0.5]];portConstraint=eastwest;" vertex="1" parent="api_gateway">
          <mxGeometry y="26" width="160" height="26" as="geometry" />
        </mxCell>
        <mxCell id="gateway_rate" value="Rate Limiting" style="text;strokeColor=none;fillColor=none;align=left;verticalAlign=top;spacingLeft=4;spacingRight=4;overflow=hidden;rotatable=0;points=[[0,0.5],[1,0.5]];portConstraint=eastwest;" vertex="1" parent="api_gateway">
          <mxGeometry y="52" width="160" height="26" as="geometry" />
        </mxCell>
        <mxCell id="gateway_routing" value="Request Routing" style="text;strokeColor=none;fillColor=none;align=left;verticalAlign=top;spacingLeft=4;spacingRight=4;overflow=hidden;rotatable=0;points=[[0,0.5],[1,0.5]];portConstraint=eastwest;" vertex="1" parent="api_gateway">
          <mxGeometry y="78" width="160" height="26" as="geometry" />
        </mxCell>
        <mxCell id="gateway_monitoring" value="Monitoring &amp; Analytics" style="text;strokeColor=none;fillColor=none;align=left;verticalAlign=top;spacingLeft=4;spacingRight=4;overflow=hidden;rotatable=0;points=[[0,0.5],[1,0.5]];portConstraint=eastwest;" vertex="1" parent="api_gateway">
          <mxGeometry y="104" width="160" height="26" as="geometry" />
        </mxCell>
        
        <!-- API Gateway Cache -->
        <mxCell id="api_gateway_cache" value="API Gateway Cache" style="rounded=1;whiteSpace=wrap;html=1;fillColor=#d5e8d4;strokeColor=#82b366;" vertex="1" parent="1">
          <mxGeometry x="465" y="490" width="160" height="50" as="geometry" />
        </mxCell>
        
        <!-- Error Handler -->
        <mxCell id="error_handler" value="Error Handler" style="rounded=1;whiteSpace=wrap;html=1;fillColor=#d5e8d4;strokeColor=#82b366;" vertex="1" parent="1">
          <mxGeometry x="465" y="550" width="160" height="50" as="geometry" />
        </mxCell>

        <!-- Experience API Layer -->
        <mxCell id="eapi_label" value="Experience API Layer" style="text;html=1;strokeColor=none;fillColor=none;align=center;verticalAlign=middle;whiteSpace=wrap;rounded=0;fontStyle=1" vertex="1" parent="1">
          <mxGeometry x="690" y="300" width="170" height="30" as="geometry" />
        </mxCell>
        <mxCell id="eapi_boundary" value="" style="rounded=0;whiteSpace=wrap;html=1;fillColor=#e1d5e7;strokeColor=#9673a6;dashed=1;dashPattern=1 1;" vertex="1" parent="1">
          <mxGeometry x="680" y="330" width="370" height="650" as="geometry" />
        </mxCell>

        <!-- EAPI Components -->
        <mxCell id="eapi_controllers" value="Experience API Controllers" style="swimlane;fontStyle=0;childLayout=stackLayout;horizontal=1;startSize=26;fillColor=#e1d5e7;horizontalStack=0;resizeParent=1;resizeParentMax=0;resizeLast=0;collapsible=1;marginBottom=0;strokeColor=#9673a6;" vertex="1" parent="1">
          <mxGeometry x="695" y="350" width="160" height="104" as="geometry" />
        </mxCell>
        <mxCell id="controller_accounts" value="Accounts Controller" style="text;strokeColor=none;fillColor=none;align=left;verticalAlign=top;spacingLeft=4;spacingRight=4;overflow=hidden;rotatable=0;points=[[0,0.5],[1,0.5]];portConstraint=eastwest;" vertex="1" parent="eapi_controllers">
          <mxGeometry y="26" width="160" height="26" as="geometry" />
        </mxCell>
        <mxCell id="controller_payments" value="Payments Controller" style="text;strokeColor=none;fillColor=none;align=left;verticalAlign=top;spacingLeft=4;spacingRight=4;overflow=hidden;rotatable=0;points=[[0,0.5],[1,0.5]];portConstraint=eastwest;" vertex="1" parent="eapi_controllers">
          <mxGeometry y="52" width="160" height="26" as="geometry" />
        </mxCell>
        <mxCell id="controller_investments" value="Investments Controller" style="text;strokeColor=none;fillColor=none;align=left;verticalAlign=top;spacingLeft=4;spacingRight=4;overflow=hidden;rotatable=0;points=[[0,0.5],[1,0.5]];portConstraint=eastwest;" vertex="1" parent="eapi_controllers">
          <mxGeometry y="78" width="160" height="26" as="geometry" />
        </mxCell>

        <!-- Validation Layer -->
        <mxCell id="validation" value="Request Validation" style="rounded=1;whiteSpace=wrap;html=1;fillColor=#e1d5e7;strokeColor=#9673a6;" vertex="1" parent="1">
          <mxGeometry x="695" y="464" width="160" height="50" as="geometry" />
        </mxCell>

        <!-- Authorization Layer -->
        <mxCell id="authorization" value="Authorization Module" style="swimlane;fontStyle=0;childLayout=stackLayout;horizontal=1;startSize=26;fillColor=#e1d5e7;horizontalStack=0;resizeParent=1;resizeParentMax=0;resizeLast=0;collapsible=1;marginBottom=0;strokeColor=#9673a6;" vertex="1" parent="1">
          <mxGeometry x="695" y="524" width="160" height="104" as="geometry" />
        </mxCell>
        <mxCell id="auth_rbac" value="RBAC" style="text;strokeColor=none;fillColor=none;align=left;verticalAlign=top;spacingLeft=4;spacingRight=4;overflow=hidden;rotatable=0;points=[[0,0.5],[1,0.5]];portConstraint=eastwest;" vertex="1" parent="authorization">
          <mxGeometry y="26" width="160" height="26" as="geometry" />
        </mxCell>
        <mxCell id="auth_abac" value="ABAC" style="text;strokeColor=none;fillColor=none;align=left;verticalAlign=top;spacingLeft=4;spacingRight=4;overflow=hidden;rotatable=0;points=[[0,0.5],[1,0.5]];portConstraint=eastwest;" vertex="1" parent="authorization">
          <mxGeometry y="52" width="160" height="26" as="geometry" />
        </mxCell>
        <mxCell id="auth_audit" value="Audit Logging" style="text;strokeColor=none;fillColor=none;align=left;verticalAlign=top;spacingLeft=4;spacingRight=4;overflow=hidden;rotatable=0;points=[[0,0.5],[1,0.5]];portConstraint=eastwest;" vertex="1" parent="authorization">
          <mxGeometry y="78" width="160" height="26" as="geometry" />
        </mxCell>

        <!-- Experience API Cache -->
        <mxCell id="eapi_cache" value="Experience API Cache" style="swimlane;fontStyle=0;childLayout=stackLayout;horizontal=1;startSize=26;fillColor=#e1d5e7;horizontalStack=0;resizeParent=1;resizeParentMax=0;resizeLast=0;collapsible=1;marginBottom=0;strokeColor=#9673a6;" vertex="1" parent="1">
          <mxGeometry x="695" y="638" width="160" height="104" as="geometry" />
        </mxCell>
        <mxCell id="cache_reference" value="Reference Data Cache" style="text;strokeColor=none;fillColor=none;align=left;verticalAlign=top;spacingLeft=4;spacingRight=4;overflow=hidden;rotatable=0;points=[[0,0.5],[1,0.5]];portConstraint=eastwest;" vertex="1" parent="eapi_cache">
          <mxGeometry y="26" width="160" height="26" as="geometry" />
        </mxCell>
        <mxCell id="cache_response" value="Response Cache" style="text;strokeColor=none;fillColor=none;align=left;verticalAlign=top;spacingLeft=4;spacingRight=4;overflow=hidden;rotatable=0;points=[[0,0.5],[1,0.5]];portConstraint=eastwest;" vertex="1" parent="eapi_cache">
          <mxGeometry y="52" width="160" height="26" as="geometry" />
        </mxCell>
        <mxCell id="cache_distributed" value="Distributed Cache" style="text;strokeColor=none;fillColor=none;align=left;verticalAlign=top;spacingLeft=4;spacingRight=4;overflow=hidden;rotatable=0;points=[[0,0.5],[1,0.5]];portConstraint=eastwest;" vertex="1" parent="eapi_cache">
          <mxGeometry y="78" width="160" height="26" as="geometry" />
        </mxCell>

        <!-- Error Handling -->
        <mxCell id="eapi_error" value="EAPI Error Handling" style="swimlane;fontStyle=0;childLayout=stackLayout;horizontal=1;startSize=26;fillColor=#e1d5e7;horizontalStack=0;resizeParent=1;resizeParentMax=0;resizeLast=0;collapsible=1;marginBottom=0;strokeColor=#9673a6;" vertex="1" parent="1">
          <mxGeometry x="695" y="752" width="160" height="104" as="geometry" />
        </mxCell>
        <mxCell id="error_business" value="Business Exceptions" style="text;strokeColor=none;fillColor=none;align=left;verticalAlign=top;spacingLeft=4;spacingRight=4;overflow=hidden;rotatable=0;points=[[0,0.5],[1,0.5]];portConstraint=eastwest;" vertex="1" parent="eapi_error">
          <mxGeometry y="26" width="160" height="26" as="geometry" />
        </mxCell>
        <mxCell id="error_technical" value="Technical Exceptions" style="text;strokeColor=none;fillColor=none;align=left;verticalAlign=top;spacingLeft=4;spacingRight=4;overflow=hidden;rotatable=0;points=[[0,0.5],[1,0.5]];portConstraint=eastwest;" vertex="1" parent="eapi_error">
          <mxGeometry y="52" width="160" height="26" as="geometry" />
        </mxCell>
        <mxCell id="error_fallback" value="Fallback Mechanisms" style="text;strokeColor=none;fillColor=none;align=left;verticalAlign=top;spacingLeft=4;spacingRight=4;overflow=hidden;rotatable=0;points=[[0,0.5],[1,0.5]];portConstraint=eastwest;" vertex="1" parent="eapi_error">
          <mxGeometry y="78" width="160" height="26" as="geometry" />
        </mxCell>

        <!-- Response Transformation -->
        <mxCell id="response_transform" value="Response Transformation" style="rounded=1;whiteSpace=wrap;html=1;fillColor=#e1d5e7;strokeColor=#9673a6;" vertex="1" parent="1">
          <mxGeometry x="695" y="866" width="160" height="50" as="geometry" />
        </mxCell>

        <!-- Orchestration Engine -->
        <mxCell id="orchestration" value="Orchestration Engine" style="swimlane;fontStyle=0;childLayout=stackLayout;horizontal=1;startSize=26;fillColor=#e1d5e7;horizontalStack=0;resizeParent=1;resizeParentMax=0;resizeLast=0;collapsible=1;marginBottom=0;strokeColor=#9673a6;" vertex="1" parent="1">
          <mxGeometry x="875" y="350" width="160" height="104" as="geometry" />
        </mxCell>
        <mxCell id="orch_workflow" value="Workflow Manager" style="text;strokeColor=none;fillColor=none;align=left;verticalAlign=top;spacingLeft=4;spacingRight=4;overflow=hidden;rotatable=0;points=[[0,0.5],[1,0.5]];portConstraint=eastwest;" vertex="1" parent="orchestration">
          <mxGeometry y="26" width="160" height="26" as="geometry" />
        </mxCell>
        <mxCell id="orch_circuit" value="Circuit Breaker" style="text;strokeColor=none;fillColor=none;align=left;verticalAlign=top;spacingLeft=4;spacingRight=4;overflow=hidden;rotatable=0;points=[[0,0.5],[1,0.5]];portConstraint=eastwest;" vertex="1" parent="orchestration">
          <mxGeometry y="52" width="160" height="26" as="geometry" />
        </mxCell>
        <mxCell id="orch_saga" value="Saga Coordinator" style="text;strokeColor=none;fillColor=none;align=left;verticalAlign=top;spacingLeft=4;spacingRight=4;overflow=hidden;rotatable=0;points=[[0,0.5],[1,0.5]];portConstraint=eastwest;" vertex="1" parent="orchestration">
          <mxGeometry y="78" width="160" height="26" as="geometry" />
        </mxCell>

        <!-- Request Transformation -->
        <mxCell id="request_transform" value="Request Transformation" style="rounded=1;whiteSpace=wrap;html=1;fillColor=#e1d5e7;strokeColor=#9673a6;" vertex="1" parent="1">
          <mxGeometry x="875" y="464" width="160" height="50" as="geometry" />
        </mxCell>

        <!-- Response Aggregation -->
        <mxCell id="response_aggregation" value="Response Aggregation" style="swimlane;fontStyle=0;childLayout=stackLayout;horizontal=1;startSize=26;fillColor=#e1d5e7;horizontalStack=0;resizeParent=1;resizeParentMax=0;resizeLast=0;collapsible=1;marginBottom=0;strokeColor=#9673a6;" vertex="1" parent="1">
          <mxGeometry x="875" y="524" width="160" height="104" as="geometry" />
        </mxCell>
        <mxCell id="agg_merge" value="Result Merging" style="text;strokeColor=none;fillColor=none;align=left;verticalAlign=top;spacingLeft=4;spacingRight=4;overflow=hidden;rotatable=0;points=[[0,0.5],[1,0.5]];portConstraint=eastwest;" vertex="1" parent="response_aggregation">
          <mxGeometry y="26" width="160" height="26" as="geometry" />
        </mxCell>
        <mxCell id="agg_filter" value="Field Filtering" style="text;strokeColor=none;fillColor=none;align=left;verticalAlign=top;spacingLeft=4;spacingRight=4;overflow=hidden;rotatable=0;points=[[0,0.5],[1,0.5]];portConstraint=eastwest;" vertex="1" parent="response_aggregation">
          <mxGeometry y="52" width="160" height="26" as="geometry" />
        </mxCell>
        <mxCell id="agg_format" value="Format Conversion" style="text;strokeColor=none;fillColor=none;align=left;verticalAlign=top;spacingLeft=4;spacingRight=4;overflow=hidden;rotatable=0;points=[[0,0.5],[1,0.5]];portConstraint=eastwest;" vertex="1" parent="response_aggregation">
          <mxGeometry y="78" width="160" height="26" as="geometry" />
        </mxCell>

        <!-- Monitoring & Logging -->
        <mxCell id="monitoring" value="Monitoring &amp; Logging" style="swimlane;fontStyle=0;childLayout=stackLayout;horizontal=1;startSize=26;fillColor=#e1d5e7;horizontalStack=0;resizeParent=1;resizeParentMax=0;resizeLast=0;collapsible=1;marginBottom=0;strokeColor=#9673a6;" vertex="1" parent="1">
          <mxGeometry x="875" y="638" width="160" height="104" as="geometry" />
        </mxCell>
        <mxCell id="mon_perf" value="Performance Metrics" style="text;strokeColor=none;fillColor=none;align=left;verticalAlign=top;spacingLeft=4;spacingRight=4;overflow=hidden;rotatable=0;points=[[0,0.5],[1,0.5]];portConstraint=eastwest;" vertex="1" parent="monitoring">
          <mxGeometry y="26" width="160" height="26" as="geometry" />
        </mxCell>
        <mxCell id="mon_trace" value="Distributed Tracing" style="text;strokeColor=none;fillColor=none;align=left;verticalAlign=top;spacingLeft=4;spacingRight=4;overflow=hidden;rotatable=0;points=[[0,0.5],[1,0.5]];portConstraint=eastwest;" vertex="1" parent="monitoring">
          <mxGeometry y="52" width="160" height="26" as="geometry" />
        </mxCell>
        <mxCell id="mon_alert" value="Alerting" style="text;strokeColor=none;fillColor=none;align=left;verticalAlign=top;spacingLeft=4;spacingRight=4;overflow=hidden;rotatable=0;points=[[0,0.5],[1,0.5]];portConstraint=eastwest;" vertex="1" parent="monitoring">
          <mxGeometry y="78" width="160" height="26" as="geometry" />
        </mxCell>

        <!-- Process API Layer -->
        <mxCell id="process_api_label" value="Process API Layer" style="text;html=1;strokeColor=none;fillColor=none;align=center;verticalAlign=middle;whiteSpace=wrap;rounded=0;fontStyle=1" vertex="1" parent="1">
          <mxGeometry x="695" y="1010" width="120" height="30" as="geometry" />
        </mxCell>
        <mxCell id="process_api" value="" style="rounded=0;whiteSpace=wrap;html=1;fillColor=#f8cecc;strokeColor=#b85450;dashed=1;dashPattern=1 1;" vertex="1" parent="1">
          <mxGeometry x="680" y="1040" width="370" height="70" as="geometry" />
        </mxCell>
        <mxCell id="process_apis" value="Process APIs (Business Logic &amp; Orchestration)" style="rounded=1;whiteSpace=wrap;html=1;fillColor=#f8cecc;strokeColor=#b85450;" vertex="1" parent="1">
          <mxGeometry x="695" y="1050" width="340" height="50" as="geometry" />
        </mxCell>

        <!-- System API Layer -->
        <mxCell id="system_api_label" value="System API Layer" style="text;html=1;strokeColor=none;fillColor=none;align=center;verticalAlign=middle;whiteSpace=wrap;rounded=0;fontStyle=1" vertex="1" parent="1">
          <mxGeometry x="695" y="1120" width="120" height="30" as="geometry" />
        </mxCell>
        <mxCell id="system_api" value="" style="rounded=0;whiteSpace=wrap;html=1;fillColor=#ffe6cc;strokeColor=#d79b00;dashed=1;dashPattern=1 1;" vertex="1" parent="1">
          <mxGeometry x="680" y="1150" width="370" height="70" as="geometry" />
        </mxCell>
        <mxCell id="system_apis" value="System APIs (Core Banking Integration)" style="rounded=1;whiteSpace=wrap;html=1;fillColor=#ffe6cc;strokeColor=#d79b00;" vertex="1" parent="1">
          <mxGeometry x="695" y="1160" width="340" height="50" as="geometry" />
        </mxCell>

        <!-- Backend Systems -->
        <mxCell id="backend_label" value="Backend Systems" style="text;html=1;strokeColor=none;fillColor=none;align=center;verticalAlign=middle;whiteSpace=wrap;rounded=0;fontStyle=1" vertex="1" parent="1">
          <mxGeometry x="695" y="1230" width="120" height="30" as="geometry" />
        </mxCell>
        <mxCell id="backend" value="" style="rounded=0;whiteSpace=wrap;html=1;fillColor=#dae8fc;strokeColor=#6c8ebf;dashed=1;dashPattern=1 1;" vertex="1" parent="1">
          <mxGeometry x="680" y="1260" width="370" height="120" as="geometry" />
        </mxCell>
        
        <mxCell id="core_banking" value="Core Banking Systems" style="rounded=1;whiteSpace=wrap;html=1;fillColor=#dae8fc;strokeColor=#6c8ebf;" vertex="1" parent="1">
          <mxGeometry x="695" y="1270" width="160" height="40" as="geometry" />
        </mxCell>
        
        <mxCell id="third_party_systems" value="Third Party Systems" style="rounded=1;whiteSpace=wrap;html=1;fillColor=#dae8fc;strokeColor=#6c8ebf;" vertex="1" parent="1">
          <mxGeometry x="875" y="1270" width="160" height="40" as="geometry" />
        </mxCell>
        
        <mxCell id="legacy_systems" value="Legacy Systems" style="rounded=1;whiteSpace=wrap;html=1;fillColor=#dae8fc;strokeColor=#6c8ebf;" vertex="1" parent="1">
          <mxGeometry x="695" y="1320" width="160" height="40" as="geometry" />
        </mxCell>
        
        <mxCell id="external_providers" value="External Providers" style="rounded=1;whiteSpace=wrap;html=1;fillColor=#dae8fc;strokeColor=#6c8ebf;" vertex="1" parent="1">
          <mxGeometry x="875" y="1320" width="160" height="40" as="geometry" />
        </mxCell>
        
        <!-- EAPI Responsibilities Label -->
        <mxCell id="eapi_resp_label" value="Experience API Responsibilities" style="text;html=1;strokeColor=none;fillColor=none;align=center;verticalAlign=middle;whiteSpace=wrap;rounded=0;fontStyle=1" vertex="1" parent="1">
          <mxGeometry x="60" y="300" width="220" height="30" as="geometry" />
        </mxCell>
        
        <!-- EAPI Responsibilities Box -->
        <mxCell id="eapi_resp" value="" style="rounded=0;whiteSpace=wrap;html=1;fillColor=#e1d5e7;strokeColor=#9673a6;dashed=1;dashPattern=1 1;" vertex="1" parent="1">
          <mxGeometry x="40" y="330" width="260" height="220" as="geometry" />
        </mxCell>
        
        <mxCell id="resp_1" value="1. Authorization - right resource access to right user" style="text;html=1;strokeColor=none;fillColor=none;align=left;verticalAlign=middle;whiteSpace=wrap;rounded=0;" vertex="1" parent="1">
          <mxGeometry x="50" y="340" width="240" height="30" as="geometry" />
        </mxCell>
        
        <mxCell id="resp_2" value="2. Request transformation to adapt with respective process APIs" style="text;html=1;strokeColor=none;fillColor=none;align=left;verticalAlign=middle;whiteSpace=wrap;rounded=0;" vertex="1" parent="1">
          <mxGeometry x="50" y="380" width="240" height="30" as="geometry" />
        </mxCell>
        
        <mxCell id="resp_3" value="3. Orchestrate to invoke multiple process APIs to fulfil journey" style="text;html=1;strokeColor=none;fillColor=none;align=left;verticalAlign=middle;whiteSpace=wrap;rounded=0;" vertex="1" parent="1">
          <mxGeometry x="50" y="420" width="240" height="30" as="geometry" />
        </mxCell>
        
        <mxCell id="resp_4" value="4. Response aggregation in line to experience API response schema" style="text;html=1;strokeColor=none;fillColor=none;align=left;verticalAlign=middle;whiteSpace=wrap;rounded=0;" vertex="1" parent="1">
          <mxGeometry x="50" y="460" width="240" height="30" as="geometry" />
        </mxCell>
        
        <mxCell id="resp_5" value="5. Respond with only required attributes despite more attributes in process API responses" style="text;html=1;strokeColor=none;fillColor=none;align=left;verticalAlign=middle;whiteSpace=wrap;rounded=0;" vertex="1" parent="1">
          <mxGeometry x="50" y="500" width="240" height="40" as="geometry" />
        </mxCell>
        
        <!-- Flow Arrows for Request Path -->
        <mxCell id="arrow1" value="" style="endArrow=classic;html=1;rounded=0;exitX=1;exitY=0.5;exitDx=0;exitDy=0;entryX=0;entryY=0.5;entryDx=0;entryDy=0;" edge="1" parent="1" source="client_group" target="cdn">
          <mxGeometry width="50" height="50" relative="1" as="geometry">
            <mxPoint x="500" y="400" as="sourcePoint" />
            <mxPoint x="550" y="350" as="targetPoint" />
          </mxGeometry>
        </mxCell>
        
        <mxCell id="arrow2" value="" style="endArrow=classic;html=1;rounded=0;exitX=1;exitY=0.5;exitDx=0;exitDy=0;entryX=0;entryY=0.5;entryDx=0;entryDy=0;" edge="1" parent="1" source="cdn" target="reverse_proxy">
          <mxGeometry width="50" height="50" relative="1" as="geometry">
            <mxPoint x="500" y="400" as="sourcePoint" />
            <mxPoint x="550" y="350" as="targetPoint" />
          </mxGeometry>
        </mxCell>
        
        <mxCell id="arrow3" value="" style="endArrow=classic;html=1;rounded=0;exitX=0.5;exitY=1;exitDx=0;exitDy=0;entryX=0.5;entryY=0;entryDx=0;entryDy=0;" edge="1" parent="1" source="reverse_proxy" target="waf">
          <mxGeometry width="50" height="50" relative="1" as="geometry">
            <mxPoint x="500" y="400" as="sourcePoint" />
            <mxPoint x="550" y="350" as="targetPoint" />
          </mxGeometry>
        </mxCell>
        
        <mxCell id="arrow4" value="" style="endArrow=classic;html=1;rounded=0;exitX=0.5;exitY=1;exitDx=0;exitDy=0;entryX=0.5;entryY=0;entryDx=0;entryDy=0;" edge="1" parent="1" source="waf" target="api_gateway">
          <mxGeometry width="50" height="50" relative="1" as="geometry">
            <mxPoint x="500" y="400" as="sourcePoint" />
            <mxPoint x="550" y="350" as="targetPoint" />
          </mxGeometry>
        </mxCell>
        
        <mxCell id="arrow5" value="" style="endArrow=classic;html=1;rounded=0;exitX=1;exitY=0.5;exitDx=0;exitDy=0;entryX=0;entryY=0.5;entryDx=0;entryDy=0;" edge="1" parent="1" source="gateway_routing" target="eapi_controllers">
          <mxGeometry width="50" height="50" relative="1" as="geometry">
            <mxPoint x="500" y="400" as="sourcePoint" />
            <mxPoint x="550" y="350" as="targetPoint" />
          </mxGeometry>
        </mxCell>
        
        <mxCell id="arrow_eapi_flow" value="" style="endArrow=classic;startArrow=classic;html=1;rounded=0;exitX=0.5;exitY=1;exitDx=0;exitDy=0;entryX=0.5;entryY=0;entryDx=0;entryDy=0;" edge="1" parent="1" source="eapi_controllers" target="validation">
          <mxGeometry width="50" height="50" relative="1" as="geometry">
            <mxPoint x="500" y="400" as="sourcePoint" />
            <mxPoint x="550" y="350" as="targetPoint" />
          </mxGeometry>
        </mxCell>
        
        <mxCell id="arrow_validation_auth" value="" style="endArrow=classic;html=1;rounded=0;exitX=0.5;exitY=1;exitDx=0;exitDy=0;entryX=0.5;entryY=0;entryDx=0;entryDy=0;" edge="1" parent="1" source="validation" target="authorization">
          <mxGeometry width="50" height="50" relative="1" as="geometry">
            <mxPoint x="500" y="400" as="sourcePoint" />
            <mxPoint x="550" y="350" as="targetPoint" />
          </mxGeometry>
        </mxCell>
        
        <mxCell id="arrow_auth_cache" value="" style="endArrow=classic;html=1;rounded=0;exitX=0.5;exitY=1;exitDx=0;exitDy=0;entryX=0.5;entryY=0;entryDx=0;entryDy=0;" edge="1" parent="1" source="authorization" target="eapi_cache">
          <mxGeometry width="50" height="50" relative="1" as="geometry">
            <mxPoint x="500" y="400" as="sourcePoint" />
            <mxPoint x="550" y="350" as="targetPoint" />
          </mxGeometry>
        </mxCell>
        
        <mxCell id="arrow_cache_error" value="" style="endArrow=classic;html=1;rounded=0;exitX=0.5;exitY=1;exitDx=0;exitDy=0;entryX=0.5;entryY=0;entryDx=0;entryDy=0;" edge="1" parent="1" source="eapi_cache" target="eapi_error">
          <mxGeometry width="50" height="50" relative="1" as="geometry">
            <mxPoint x="500" y="400" as="sourcePoint" />
            <mxPoint x="550" y="350" as="targetPoint" />
          </mxGeometry>
        </mxCell>
        
        <mxCell id="arrow_error_transform" value="" style="endArrow=classic;html=1;rounded=0;exitX=0.5;exitY=1;exitDx=0;exitDy=0;entryX=0.5;entryY=0;entryDx=0;entryDy=0;" edge="1" parent="1" source="eapi_error" target="response_transform">
          <mxGeometry width="50" height="50" relative="1" as="geometry">
            <mxPoint x="500" y="400" as="sourcePoint" />
            <mxPoint x="550" y="350" as="targetPoint" />
          </mxGeometry>
        </mxCell>
        
        <mxCell id="arrow_controller_orch" value="" style="endArrow=classic;html=1;rounded=0;exitX=1;exitY=0.5;exitDx=0;exitDy=0;entryX=0;entryY=0.5;entryDx=0;entryDy=0;" edge="1" parent="1" source="controller_accounts" target="orchestration">
          <mxGeometry width="50" height="50" relative="1" as="geometry">
            <mxPoint x="500" y="400" as="sourcePoint" />
            <mxPoint x="550" y="350" as="targetPoint" />
          </mxGeometry>
        </mxCell>
        
        <mxCell id="arrow_orch_transform" value="" style="endArrow=classic;html=1;rounded=0;exitX=0.5;exitY=1;exitDx=0;exitDy=0;entryX=0.5;entryY=0;entryDx=0;entryDy=0;" edge="1" parent="1" source="orchestration" target="request_transform">
          <mxGeometry width="50" height="50" relative="1" as="geometry">
            <mxPoint x="500" y="400" as="sourcePoint" />
            <mxPoint x="550" y="350" as="targetPoint" />
          </mxGeometry>
        </mxCell>
        
        <mxCell id="arrow_transform_agg" value="" style="endArrow=classic;html=1;rounded=0;exitX=0.5;exitY=1;exitDx=0;exitDy=0;entryX=0.5;entryY=0;entryDx=0;entryDy=0;" edge="1" parent="1" source="request_transform" target="response_aggregation">
          <mxGeometry width="50" height="50" relative="1" as="geometry">
            <mxPoint x="500" y="400" as="sourcePoint" />
            <mxPoint x="550" y="350" as="targetPoint" />
          </mxGeometry>
        </mxCell>
        
        <mxCell id="arrow_agg_mon" value="" style="endArrow=classic;html=1;rounded=0;exitX=0.5;exitY=1;exitDx=0;exitDy=0;entryX=0.5;entryY=0;entryDx=0;entryDy=0;" edge="1" parent="1" source="response_aggregation" target="monitoring">
          <mxGeometry width="50" height="50" relative="1" as="geometry">
            <mxPoint x="500" y="400" as="sourcePoint" />
            <mxPoint x="550" y="350" as="targetPoint" />
          </mxGeometry>
        </mxCell>
        
        <mxCell id="arrow_transform_process" value="" style="endArrow=classic;startArrow=classic;html=1;rounded=0;exitX=0.5;exitY=1;exitDx=0;exitDy=0;entryX=0.75;entryY=0;entryDx=0;entryDy=0;" edge="1" parent="1" source="monitoring" target="process_apis">
          <mxGeometry width="50" height="50" relative="1" as="geometry">
            <mxPoint x="500" y="400" as="sourcePoint" />
            <mxPoint x="550" y="350" as="targetPoint" />
            <Array as="points">
              <mxPoint x="955" y="1030" />
              <mxPoint x="950" y="1030" />
            </Array>
          </mxGeometry>
        </mxCell>
        
        <mxCell id="arrow_process_system" value="" style="endArrow=classic;startArrow=classic;html=1;rounded=0;exitX=0.5;exitY=1;exitDx=0;exitDy=0;entryX=0.5;entryY=0;entryDx=0;entryDy=0;" edge="1" parent="1" source="process_apis" target="system_apis">
          <mxGeometry width="50" height="50" relative="1" as="geometry">
            <mxPoint x="500" y="400" as="sourcePoint" />
            <mxPoint x="550" y="350" as="targetPoint" />
          </mxGeometry>
        </mxCell>
        
        <mxCell id="arrow_system_backend" value="" style="endArrow=classic;startArrow=classic;html=1;rounded=0;exitX=0.5;exitY=1;exitDx=0;exitDy=0;entryX=0.5;entryY=0;entryDx=0;entryDy=0;" edge="1" parent="1" source="system_apis" target="core_banking">
          <mxGeometry width="50" height="50" relative="1" as="geometry">
            <mxPoint x="500" y="400" as="sourcePoint" />
            <mxPoint x="550" y="350" as="targetPoint" />
            <Array as="points">
              <mxPoint x="865" y="1230" />
              <mxPoint x="775" y="1230" />
            </Array>
          </mxGeometry>
        </mxCell>
        
        <mxCell id="arrow_system_thirdparty" value="" style="endArrow=classic;startArrow=classic;html=1;rounded=0;exitX=0.5;exitY=0;exitDx=0;exitDy=0;" edge="1" parent="1" target="system_apis" source="third_party_systems">
          <mxGeometry width="50" height="50" relative="1" as="geometry">
            <mxPoint x="955" y="1270" as="sourcePoint" />
            <mxPoint x="550" y="350" as="targetPoint" />
            <Array as="points">
              <mxPoint x="955" y="1230" />
              <mxPoint x="865" y="1230" />
            </Array>
          </mxGeometry>
        </mxCell>
        
        <!-- Cache Check Flow -->
        <mxCell id="arrow_cache_check" value="" style="endArrow=classic;html=1;rounded=0;exitX=0;exitY=0.5;exitDx=0;exitDy=0;entryX=1;entryY=0.5;entryDx=0;entryDy=0;dashed=1;dashPattern=1 2;" edge="1" parent="1" source="cache_reference" target="api_gateway_cache">
          <mxGeometry width="50" height="50" relative="1" as="geometry">
            <mxPoint x="500" y="400" as="sourcePoint" />
            <mxPoint x="550" y="350" as="targetPoint" />
          </mxGeometry>
        </mxCell>
        
        <!-- CDN Cache Check -->
        <mxCell id="arrow_cdn_check" value="" style="endArrow=classic;html=1;rounded=0;exitX=0.5;exitY=1;exitDx=0;exitDy=0;entryX=0.5;entryY=0;entryDx=0;entryDy=0;dashed=1;dashPattern=1 2;" edge="1" parent="1" source="cdn" target="cdn_cache_box">
          <mxGeometry width="50" height="50" relative="1" as="geometry">
            <mxPoint x="500" y="400" as="sourcePoint" />
            <mxPoint x="550" y="350" as="targetPoint" />
          </mxGeometry>
        </mxCell>
        
        <!-- Error Flow -->
        <mxCell id="arrow_error_flow" value="" style="endArrow=classic;html=1;rounded=0;exitX=0.5;exitY=0;exitDx=0;exitDy=0;entryX=0;entryY=0.5;entryDx=0;entryDy=0;dashed=1;dashPattern=1 2;fillColor=#f8cecc;strokeColor=#b85450;" edge="1" parent="1" source="error_handler" target="error_technical">
          <mxGeometry width="50" height="50" relative="1" as="geometry">
            <mxPoint x="500" y="400" as="sourcePoint" />
            <mxPoint x="550" y="350" as="targetPoint" />
            <Array as="points">
              <mxPoint x="545" y="530" />
              <mxPoint x="630" y="530" />
              <mxPoint x="630" y="804" />
            </Array>
          </mxGeometry>
        </mxCell>
        
        <!-- Legend -->
        <mxCell id="legend" value="Legend" style="swimlane;fontStyle=0;childLayout=stackLayout;horizontal=1;startSize=26;fillColor=none;horizontalStack=0;resizeParent=1;resizeParentMax=0;resizeLast=0;collapsible=1;marginBottom=0;" vertex="1" parent="1">
          <mxGeometry x="40" y="580" width="260" height="130" as="geometry" />
        </mxCell>
        <mxCell id="legend_req" value="→ Request Flow" style="text;strokeColor=none;fillColor=none;align=left;verticalAlign=top;spacingLeft=4;spacingRight=4;overflow=hidden;rotatable=0;points=[[0,0.5],[1,0.5]];portConstraint=eastwest;" vertex="1" parent="legend">
          <mxGeometry y="26" width="260" height="26" as="geometry" />
        </mxCell>
        <mxCell id="legend_resp" value="← Response Flow (follows the same path)" style="text;strokeColor=none;fillColor=none;align=left;verticalAlign=top;spacingLeft=4;spacingRight=4;overflow=hidden;rotatable=0;points=[[0,0.5],[1,0.5]];portConstraint=eastwest;" vertex="1" parent="legend">
          <mxGeometry y="52" width="260" height="26" as="geometry" />
        </mxCell>
        <mxCell id="legend_cache" value="⇢ Cache Check Flow (dashed line)" style="text;strokeColor=none;fillColor=none;align=left;verticalAlign=top;spacingLeft=4;spacingRight=4;overflow=hidden;rotatable=0;points=[[0,0.5],[1,0.5]];portConstraint=eastwest;dashed=1;dashPattern=1 2;" vertex="1" parent="legend">
          <mxGeometry y="78" width="260" height="26" as="geometry" />
        </mxCell>
        <mxCell id="legend_error" value="⇢ Error Handling Flow (red dashed line)" style="text;strokeColor=#b85450;fillColor=none;align=left;verticalAlign=top;spacingLeft=4;spacingRight=4;overflow=hidden;rotatable=0;points=[[0,0.5],[1,0.5]];portConstraint=eastwest;dashed=1;dashPattern=1 2;" vertex="1" parent="legend">
          <mxGeometry y="104" width="260" height="26" as="geometry" />
        </mxCell>
        
        <!-- Labels for security zones -->
        <mxCell id="internet_label" value="Internet / Client Zone" style="text;html=1;strokeColor=none;fillColor=none;align=center;verticalAlign=middle;whiteSpace=wrap;rounded=0;fontStyle=1" vertex="1" parent="1">
          <mxGeometry x="50" y="70" width="140" height="30" as="geometry" />
        </mxCell>
        
        <!-- Cache Hit Response Path -->
        <mxCell id="arrow_cache_hit" value="Cache Hit Response" style="endArrow=classic;html=1;rounded=0;entryX=1;entryY=0.75;entryDx=0;entryDy=0;exitX=0;exitY=0.75;exitDx=0;exitDy=0;dashed=1;dashPattern=1 2;fillColor=#d5e8d4;strokeColor=#82b366;" edge="1" parent="1" source="cdn" target="client_group">
          <mxGeometry x="-0.0476" y="-15" width="50" height="50" relative="1" as="geometry">
            <mxPoint x="500" y="400" as="sourcePoint" />
            <mxPoint x="550" y="350" as="targetPoint" />
            <mxPoint as="offset" />
          </mxGeometry>
        </mxCell>
        
        <!-- Request Flow from Experience API to Process API -->
        <mxCell id="arrow_eapi_to_process" value="" style="endArrow=classic;html=1;rounded=0;exitX=0.5;exitY=1;exitDx=0;exitDy=0;entryX=0.25;entryY=0;entryDx=0;entryDy=0;" edge="1" parent="1" source="response_transform" target="process_apis">
          <mxGeometry width="50" height="50" relative="1" as="geometry">
            <mxPoint x="500" y="400" as="sourcePoint" />
            <mxPoint x="550" y="350" as="targetPoint" />
            <Array as="points">
              <mxPoint x="775" y="1030" />
              <mxPoint x="780" y="1030" />
            </Array>
          </mxGeometry>
        </mxCell>
        
        <!-- EAPI Title -->
        <mxCell id="title_eapi" value="Experience API Layer Request/Response Processing Flow" style="text;html=1;strokeColor=none;fillColor=none;align=center;verticalAlign=middle;whiteSpace=wrap;rounded=0;fontSize=14;fontStyle=1" vertex="1" parent="1">
          <mxGeometry x="250" y="60" width="600" height="30" as="geometry" />
        </mxCell>
        
      </root>
    </mxGraphModel>
  </diagram>
</mxfile>